<svg xmlns="http://www.w3.org/2000/svg" viewBox="0 0 900 620" font-family="Helvetica, Arial, sans-serif">
<rect x="0" y="0" width="900" height="620" fill="#ffffff"/>
<rect x="20" y="20" width="860" height="580" rx="10" fill="#ffffff" stroke="#D3DCE4" stroke-width="1.5"/>
<path d="M20 30 a10 10 0 0 1 10 -10 h840 a10 10 0 0 1 10 10 v70 h-860 z" fill="#0072B2"/>
<text x="44" y="65" font-size="24" font-weight="700" fill="#ffffff">The question, as a question</text>
<text x="44" y="88" font-size="13" fill="#ffffff" opacity="0.85">one-page action brief &#183; draft for team decision</text>
<rect x="40" y="120" width="820" height="150" rx="6" fill="#EDF4F9"/>
<rect x="40" y="120" width="5" height="150" fill="#0072B2"/>
<text x="64" y="148" font-size="15" font-weight="700" fill="#1B1F24">TL;DR</text>
<rect x="64" y="165" width="340" height="8" rx="4" fill="#D3DCE4"/>
<rect x="64" y="185" width="320" height="8" rx="4" fill="#D3DCE4"/>
<rect x="64" y="205" width="300" height="8" rx="4" fill="#D3DCE4"/>
<rect x="64" y="225" width="200" height="8" rx="4" fill="#D3DCE4"/>
<line x1="460" y1="135" x2="460" y2="255" stroke="#0072B2" stroke-width="1" opacity="0.35"/>
<text x="484" y="148" font-size="15" font-weight="700" fill="#1B1F24">Input</text>
<rect x="484" y="159" width="10" height="10" fill="#0072B2"/>
<rect x="504" y="162" width="300" height="8" rx="4" fill="#D3DCE4"/>
<rect x="484" y="185" width="10" height="10" fill="#0072B2"/>
<rect x="504" y="188" width="280" height="8" rx="4" fill="#D3DCE4"/>
<rect x="484" y="211" width="10" height="10" fill="#0072B2"/>
<rect x="504" y="214" width="220" height="8" rx="4" fill="#D3DCE4"/>
<circle cx="135.0" cy="300" r="7" fill="#0072B2"/>
<line x1="142.0" y1="300" x2="338.0" y2="300" stroke="#56626E" stroke-width="1.5"/>
<polygon points="338.0,296 345.0,300 338.0,304" fill="#56626E"/>
<circle cx="345.0" cy="300" r="7" fill="#0072B2"/>
<line x1="352.0" y1="300" x2="548.0" y2="300" stroke="#56626E" stroke-width="1.5"/>
<polygon points="548.0,296 555.0,300 548.0,304" fill="#56626E"/>
<circle cx="555.0" cy="300" r="7" fill="#0072B2"/>
<line x1="562.0" y1="300" x2="758.0" y2="300" stroke="#56626E" stroke-width="1.5"/>
<polygon points="758.0,296 765.0,300 758.0,304" fill="#56626E"/>
<circle cx="765.0" cy="300" r="7" fill="#0072B2"/>
<rect x="40" y="320" width="190" height="190" rx="6" fill="#ffffff" stroke="#D3DCE4" stroke-width="1.5"/>
<rect x="40" y="320" width="190" height="34" rx="6" fill="#EDF4F9"/>
<rect x="40" y="337" width="190" height="17" fill="#EDF4F9"/>
<text x="54" y="342" font-size="13" font-weight="700" fill="#1B1F24">STAGE 0</text>
<circle cx="212" cy="337" r="6" fill="#D55E00"/>
<text x="54" y="368" font-size="9" font-weight="700" letter-spacing="0.5" fill="#56626E">SETTLES</text>
<rect x="54" y="376" width="144" height="7" rx="3.5" fill="#D3DCE4"/>
<text x="54" y="402" font-size="9" font-weight="700" letter-spacing="0.5" fill="#56626E">HANDS OFF</text>
<rect x="54" y="410" width="144" height="7" rx="3.5" fill="#D3DCE4"/>
<text x="54" y="436" font-size="9" font-weight="700" letter-spacing="0.5" fill="#56626E">ENDS IF</text>
<rect x="54" y="444" width="144" height="7" rx="3.5" fill="#D3DCE4"/>
<rect x="54" y="480" width="66" height="18" rx="3" fill="#D55E00" opacity="0.14"/>
<text x="63" y="493" font-size="9" font-weight="700" fill="#D55E00">BLOCKING</text>
<rect x="250" y="320" width="190" height="190" rx="6" fill="#ffffff" stroke="#D3DCE4" stroke-width="1.5"/>
<rect x="250" y="320" width="190" height="34" rx="6" fill="#EDF4F9"/>
<rect x="250" y="337" width="190" height="17" fill="#EDF4F9"/>
<text x="264" y="342" font-size="13" font-weight="700" fill="#1B1F24">STAGE 1</text>
<circle cx="422" cy="337" r="6" fill="#B07A00"/>
<text x="264" y="368" font-size="9" font-weight="700" letter-spacing="0.5" fill="#56626E">SETTLES</text>
<rect x="264" y="376" width="144" height="7" rx="3.5" fill="#D3DCE4"/>
<text x="264" y="402" font-size="9" font-weight="700" letter-spacing="0.5" fill="#56626E">HANDS OFF</text>
<rect x="264" y="410" width="144" height="7" rx="3.5" fill="#D3DCE4"/>
<text x="264" y="436" font-size="9" font-weight="700" letter-spacing="0.5" fill="#56626E">ENDS IF</text>
<rect x="264" y="444" width="144" height="7" rx="3.5" fill="#D3DCE4"/>
<rect x="264" y="480" width="72" height="18" rx="3" fill="#B07A00" opacity="0.14"/>
<text x="273" y="493" font-size="9" font-weight="700" fill="#B07A00">STOP RISK</text>
<rect x="460" y="320" width="190" height="190" rx="6" fill="#ffffff" stroke="#D3DCE4" stroke-width="1.5"/>
<rect x="460" y="320" width="190" height="34" rx="6" fill="#EDF4F9"/>
<rect x="460" y="337" width="190" height="17" fill="#EDF4F9"/>
<text x="474" y="342" font-size="13" font-weight="700" fill="#1B1F24">STAGE 2</text>
<circle cx="632" cy="337" r="6" fill="#0072B2"/>
<text x="474" y="368" font-size="9" font-weight="700" letter-spacing="0.5" fill="#56626E">SETTLES</text>
<rect x="474" y="376" width="144" height="7" rx="3.5" fill="#D3DCE4"/>
<text x="474" y="402" font-size="9" font-weight="700" letter-spacing="0.5" fill="#56626E">HANDS OFF</text>
<rect x="474" y="410" width="144" height="7" rx="3.5" fill="#D3DCE4"/>
<text x="474" y="436" font-size="9" font-weight="700" letter-spacing="0.5" fill="#56626E">ENDS IF</text>
<rect x="474" y="444" width="144" height="7" rx="3.5" fill="#D3DCE4"/>
<rect x="474" y="480" width="60" height="18" rx="3" fill="#0072B2" opacity="0.14"/>
<text x="483" y="493" font-size="9" font-weight="700" fill="#0072B2">IN PLAN</text>
<rect x="670" y="320" width="190" height="190" rx="6" fill="#ffffff" stroke="#D3DCE4" stroke-width="1.5"/>
<rect x="670" y="320" width="190" height="34" rx="6" fill="#EDF4F9"/>
<rect x="670" y="337" width="190" height="17" fill="#EDF4F9"/>
<text x="684" y="342" font-size="13" font-weight="700" fill="#1B1F24">STAGE 3</text>
<circle cx="842" cy="337" r="6" fill="#009E73"/>
<text x="684" y="368" font-size="9" font-weight="700" letter-spacing="0.5" fill="#56626E">SETTLES</text>
<rect x="684" y="376" width="144" height="7" rx="3.5" fill="#D3DCE4"/>
<text x="684" y="402" font-size="9" font-weight="700" letter-spacing="0.5" fill="#56626E">HANDS OFF</text>
<rect x="684" y="410" width="144" height="7" rx="3.5" fill="#D3DCE4"/>
<text x="684" y="436" font-size="9" font-weight="700" letter-spacing="0.5" fill="#56626E">ENDS IF</text>
<rect x="684" y="444" width="144" height="7" rx="3.5" fill="#D3DCE4"/>
<rect x="684" y="480" width="30" height="18" rx="3" fill="#009E73" opacity="0.14"/>
<text x="693" y="493" font-size="9" font-weight="700" fill="#009E73">GO</text>
<line x1="40" y1="530" x2="860" y2="530" stroke="#D3DCE4" stroke-width="1"/>
<text x="40" y="561" font-size="14" font-weight="700" fill="#0072B2">1.</text>
<rect x="64" y="553" width="330" height="8" rx="4" fill="#D3DCE4"/>
<rect x="408" y="545" width="72" height="16" rx="3" fill="#D55E00" opacity="0.14"/>
<text x="416" y="557" font-size="9" font-weight="700" fill="#D55E00">BLOCKING</text>
<text x="40" y="589" font-size="14" font-weight="700" fill="#0072B2">2.</text>
<rect x="64" y="581" width="260" height="8" rx="4" fill="#D3DCE4"/>
</svg>